PathFileType	3	(X/Y/Z)	D:\Jess\Healthy\Labelled\HA16\20250507\SRRun02.trc
DataRate	CameraRate	NumFrames	NumMarkers	Units	OrigDataRate	OrigDataStartFrame	OrigNumFrames
250.0	250.0	5	37	mm	250.0	36563	2501
Frame#	Time	C7			T10			CLAV			LSHO			RSHO			LASIS			RASIS			LPSIS			RPSIS			LILCR			RILCR			LGTR			LTHI			LLTHI			LLEP			LMEP			LPSH			LLSH			LDSH			LLMAL			LMMAL			LTOE			L5TH			LHEE			RGTR			RTHI			RLTHI			RLEP			RMEP			RPSH			RLSH			RDSH			RLMAL			RMMAL			RTOE			R5TH			RHEE			
		X1	Y1	Z1	X2	Y2	Z2	X3	Y3	Z3	X4	Y4	Z4	X5	Y5	Z5	X6	Y6	Z6	X7	Y7	Z7	X8	Y8	Z8	X9	Y9	Z9	X10	Y10	Z10	X11	Y11	Z11	X12	Y12	Z12	X13	Y13	Z13	X14	Y14	Z14	X15	Y15	Z15	X16	Y16	Z16	X17	Y17	Z17	X18	Y18	Z18	X19	Y19	Z19	X20	Y20	Z20	X21	Y21	Z21	X22	Y22	Z22	X23	Y23	Z23	X24	Y24	Z24	X25	Y25	Z25	X26	Y26	Z26	X27	Y27	Z27	X28	Y28	Z28	X29	Y29	Z29	X30	Y30	Z30	X31	Y31	Z31	X32	Y32	Z32	X33	Y33	Z33	X34	Y34	Z34	X35	Y35	Z35	X36	Y36	Z36	X37	Y37	Z37	

1564	146.248	1064.728552293534	1322.538373789407	-371.0673035678965	978.2789718015579	1091.269972548593	-350.1028011949433	1192.596127665927	1208.590197768508	-377.8434840844047	1149.467945363972	1266.157476445518	-232.2610473550121	1113.434293014061	1267.657287968998	-512.6452135900953	1135.54680443761	870.4745585707424	-487.9944820858626	1151.476643480682	833.2747343658442	-253.3927412707573	958.4970938954555	899.3936683176481	-372.8167997504653	962.7511683357891	890.9470722654188	-325.8951154288731	1068.200173878681	946.3368955324777	-510.5564048876317	1088.621993896117	907.6116248646966	-212.4571631678533	1064.689955117629	800.5422208365321	-549.4488601916073	1201.854497564095	667.3010557660266	-480.8551120003578	1130.70658384206	559.9575984850641	-512.6960180070132	1160.63087434718	431.8581829164273	-484.9981301142918	nan	nan	nan	1193.096524908533	345.4436494545166	-419.8141674626239	1093.681318279671	267.9245675230987	-489.2670498800864	1109.314674412225	177.5585454635823	-411.5063259719601	1019.352527588993	104.8558257371773	-452.0139575485293	nan	nan	nan	1145.445713929824	61.94814855701987	-440.1391147246443	1108.554233381526	38.60202632625183	-485.656354754847	947.0465825974918	80.08096676330683	-408.1492218989376	1078.023178481222	741.7789257212876	-189.2922619220616	1210.359223732976	632.1303481856336	-278.9675932174539	1129.033779009749	531.5525299426608	-209.6406686207075	1142.115657498256	417.0695276896224	-223.2224581698598	nan	nan	nan	1117.616654945752	335.1623332988553	-269.9423678169645	1001.311154603628	372.7814269827202	-218.7260152718376	912.422985284943	298.853310964923	-271.3045948216504	812.2511225635151	335.9849298620647	-251.9271199047259	nan	nan	nan	776.7230709262161	200.8547668524972	-241.1755667245061	747.5144594474228	236.4712059063543	-217.5180673986365	786.3944586547512	388.5240270374911	-309.7021049349165	
1565	146.252	1064.380886979626	1321.985597231888	-371.8258698615999	977.761536549905	1090.869362954462	-351.3173608058283	1192.426665553313	1208.1275285381	-376.7792065603179	1147.268831064098	1265.84048044674	-231.7342256148301	1114.719811537127	1266.876541347179	-512.6937551122955	1135.683266391056	869.3526916281389	-487.1987179301948	1150.335287548107	832.9469480228353	-253.1009086469427	958.030113139788	899.6254481731654	-373.8509060547985	962.0784845883647	891.053599878198	-326.8964939515349	1068.921240487667	946.3485138015063	-510.4670391936879	1087.452598952992	907.6073960878658	-212.483441770895	1064.55206965659	799.9804267100938	-549.4938830400176	1199.451561256479	665.322590447018	-479.962855837782	1127.028224043812	558.6834881889221	-512.518841421135	1154.643766736393	429.8345974313342	-484.7971031136066	nan	nan	nan	1186.494032826107	342.9693202784211	-420.0126614003484	1085.602212753513	266.8468005727331	-488.9505801114266	1100.387332739677	176.4251481024064	-411.4796980369586	1009.396258969913	105.0637226140335	-451.8626923207005	nan	nan	nan	1135.180676827064	61.692893040255	-440.1554512158388	1098.159300752061	38.53869904646962	-485.6670792999279	936.8497605098987	80.41894534782529	-408.016103271289	1076.802122646861	741.5579716950933	-189.6173371327002	1212.099904134601	633.6846294307461	-279.1826701667111	1133.486270198098	532.1967642580322	-209.2750702957011	1149.023439928302	417.7054860154374	-223.5163325575159	nan	nan	nan	1125.701203349172	335.9723498928709	-270.7205752914779	1009.504223151277	372.302086368818	-218.7952757559096	920.9604620217324	297.3444643904763	-271.3417787391109	820.2872419408387	332.9538721584655	-251.4655009230263	nan	nan	nan	787.3428066880784	197.1329130154618	-241.3141547818947	757.6361892863788	232.0125419523948	-217.2022117564796	792.7750856054274	385.4364891192308	-308.7122935360088	
1566	146.256	1063.995618196807	1321.619147313044	-372.5586597886898	977.3260498555268	1090.6208580637	-352.539917597625	1192.22852934867	1207.962595092995	-375.6519906265469	1144.96685178813	1265.845277851672	-231.1901174595546	1116.072377479324	1266.442914213792	-512.6610437829557	1135.872831817437	868.2937305062776	-486.3983081804347	1149.2167750018	833.0370364716889	-252.7613826608135	957.6019900243577	900.0042821289535	-374.9538615816298	961.4397983284358	891.3344879614868	-327.9691910695145	1069.820619732461	946.3849954551598	-510.3714655033627	1086.28312363023	907.9310327087846	-212.5412629854135	1064.451426499719	799.4643816254713	-549.5250870912926	1196.984708213469	663.3394099382937	-479.1104824126456	1123.169956447744	557.5043828778565	-512.3166814336104	1148.423521564564	427.9112320158884	-484.584495003217	nan	nan	nan	1179.669689402774	340.6052315226099	-420.2324490148936	1077.338040369431	265.856863956439	-488.6316187869502	1091.357511898633	175.3644520402798	-411.4726755407758	999.40993584041	105.2795099060314	-451.7117031632884	nan	nan	nan	1124.901846891875	61.42593378400439	-440.1690784024097	1087.748448688552	38.45957739896107	-485.6672575362147	926.6317990375127	80.78525261105759	-407.8724699653802	1075.478663963719	741.5976566869025	-189.9113491032515	1213.72844515742	635.5056487010906	-279.3053757209298	1137.864882395019	533.1905836796927	-208.9054931928765	1155.777936463816	418.7474889642885	-223.859151434753	nan	nan	nan	1133.723672764352	337.1135874650214	-271.4704032813583	1017.561645835049	371.9612991003681	-218.9201802471922	929.5388975636226	295.7652116744828	-271.3707060622937	828.3205921605761	329.6521192100781	-251.0359544782557	nan	nan	nan	798.2506816458344	193.1553929593962	-241.4159804791381	767.9816418953203	227.2361408903911	-216.8900022731497	799.0835886857942	381.9547229015089	-307.7902514575443	
1567	146.26	1063.582036711356	1321.444726304747	-373.2615577427165	976.977646171141	1090.524212996539	-353.7740430869336	1192.006657175278	1208.090023757704	-374.4645775965407	1142.57152571152	1266.165147262649	-230.6287668044793	1117.494417514839	1266.357849128288	-512.5452725487753	1136.107805135806	867.3061185483925	-485.6164048261894	1148.129010687254	833.5159596908389	-252.3711066824413	957.2207202740169	900.5253429185136	-376.0898195477528	960.8422181149947	891.7842538866737	-329.076570604117	1070.886222012272	946.4261027893829	-510.275853361164	1085.111276273047	908.5430660141286	-212.623777061099	1064.371448875735	799.0047819711288	-549.5422031933623	1194.452702729721	661.3562241991391	-478.3211728207785	1119.144947154189	556.4327509855782	-512.0916168541996	1142.00879966567	426.1158216281097	-484.3574580457815	nan	nan	nan	1172.63642465519	338.3814970066189	-420.4471145123413	1068.930612285244	264.9724424552704	-488.3111537174598	1082.23831111962	174.395049700628	-411.4708267273745	989.4021842140838	105.5186324544618	-451.558466984063	nan	nan	nan	1114.615002377193	61.15150713357152	-440.1774955428379	1077.326527166405	38.37481059810845	-485.6565678340824	916.401664345609	81.19513048046689	-407.7189851596028	1074.080522575718	741.8837319910755	-190.1639948481958	1215.237222958217	637.5968655877207	-279.3308492735777	1142.145900157733	534.5309350410638	-208.542607362746	1162.357958764546	420.2000061881026	-224.245902617426	nan	nan	nan	1141.660907425807	338.5859439185251	-272.1785415120016	1025.454997725752	371.755307070557	-219.0986027288604	938.1478586237508	294.1204216301282	-271.3921953374654	836.3499980829446	326.0882685090263	-250.6481916617728	nan	nan	nan	809.4461714111294	188.9519060379269	-241.4716112546168	778.5518487952537	222.1716130022194	-216.5797172750905	805.3331654846147	378.0714977554348	-306.9579455317457	
1568	146.264	1063.150340260554	1321.466599342073	-373.930364910218	976.7205066568093	1090.580010721163	-355.0238535840738	1191.766834781874	1208.502417571523	-373.2194630386558	1140.0945046866	1266.78963619506	-230.0512554462897	1118.987590410687	1266.618195221342	-512.3446566020057	1136.381738816466	866.4012053001628	-484.8728963355096	1147.080268449374	834.3499608895033	-251.9280119295148	956.8949259328706	901.1855792957195	-377.2250805173538	960.2935461397811	892.4000533423853	-330.1840858219334	1072.104043767952	946.4595716742954	-510.184979890116	1083.935242875314	909.4051608692125	-212.7229517354863	1064.295555125822	798.6139427324051	-549.5439763193887	1191.85382971829	659.383039936744	-477.6109910947023	1114.966373555813	555.4823139200181	-511.8445430925622	1135.431659982249	424.4747050659543	-484.1139935086146	nan	nan	nan	1165.405669435898	336.3267460197465	-420.6319509130472	1060.417592322558	264.2102194384389	-487.9902578475209	1073.041667519676	173.535209587086	-411.4613288951966	979.381281542109	105.7968305773223	-451.4014341694595	nan	nan	nan	1104.325141118162	60.87465530106209	-440.1789081977355	1066.897771011807	38.29426505104924	-485.6346539411338	906.168399098011	81.66460972929856	-407.556961300915	1072.637438631521	742.4059961251197	-190.3651285246457	1216.620052727007	639.9606021817149	-279.2571884495919	1146.306724238882	536.2110794309137	-208.1964413954229	1168.743931553192	422.0621494502936	-224.6712765296208	nan	nan	nan	1149.490340364428	340.3853135631931	-272.8332370448251	1033.158533371921	371.6777404123294	-219.3279263962906	946.7789841189401	292.4146244805744	-271.4072923627569	844.3771349553624	322.2714833747742	-250.3114815289382	nan	nan	nan	820.9285218069923	184.5536028852695	-241.4720365170591	789.3484637793555	216.8501193452747	-216.2690874575069	811.5412109360045	373.7810829736341	-306.2364149048642	
